USFL
nRows=165
nColumns=2
inDegrees=yes
endheader
time	med_gas_r	
7.43702	 42.508088	
7.49952	 42.425949	
7.56202	 42.480220	
7.62451	 42.263480	
7.68701	 38.561975	
7.7495	 36.639633	
7.812	 33.841969	
7.8745	 33.048951	
7.93699	 32.680031	
7.99949	 32.445124	
8.06198	 30.551708	
8.12448	 30.500951	
8.18698	 30.333787	
8.24947	 30.406044	
8.31197	 30.201342	
8.37446	 30.083517	
8.43696	 30.064589	
8.49946	 30.160005	
8.56195	 30.138517	
8.62445	 30.157129	
8.68694	 30.271470	
8.74944	 30.384251	
8.81194	 30.423957	
8.87443	 30.558197	
8.93693	 30.686526	
8.99942	 30.649908	
9.06192	 30.620812	
9.12442	 30.518803	
9.18691	 30.478252	
9.24941	 30.513565	
9.3119	 30.586203	
9.3744	 30.741699	
9.4369	 30.853346	
9.49939	 31.327228	
9.56189	 31.372110	
9.62438	 31.153388	
9.68688	 30.989790	
9.74938	 31.039984	
9.81187	 31.139584	
9.87437	 30.968009	
9.93686	 30.943347	
9.99936	 30.978034	
10.0619	 30.972728	
10.1244	 30.991564	
10.1868	 31.098407	
10.2493	 31.038653	
10.3118	 31.077312	
10.3743	 31.069943	
10.4368	 31.007768	
10.4993	 31.040917	
10.5618	 31.051968	
10.6243	 31.163182	
10.6868	 31.140552	
10.7493	 30.985607	
10.8118	 31.121923	
10.8743	 31.099683	
10.9368	 30.940081	
10.9993	 30.809768	
11.0618	 30.782124	
11.1243	 30.730118	
11.1868	 30.684743	
11.2493	 30.574688	
11.3118	 30.591654	
11.3743	 30.660702	
11.4368	 30.697641	
11.4993	 30.686401	
11.5618	 30.890392	
11.6243	 31.132192	
11.6868	 31.278184	
11.7492	 31.291384	
11.8117	 31.180128	
11.8742	 31.368323	
11.9367	 31.586363	
11.9992	 31.527232	
12.0617	 31.642465	
12.1242	 31.543101	
12.1867	 31.500749	
12.2492	 31.367016	
12.3117	 31.247555	
12.3742	 31.260950	
12.4367	 31.127910	
12.4992	 30.987035	
12.5617	 31.007483	
12.6242	 30.881420	
12.6867	 30.853726	
12.7492	 30.890460	
12.8117	 30.939724	
12.8742	 30.673052	
12.9367	 30.652255	
12.9992	 30.571734	
13.0617	 30.387943	
13.1242	 30.440887	
13.1867	 30.179489	
13.2492	 29.618591	
13.3116	 29.373808	
13.3741	 30.061940	
13.4366	 30.475963	
13.4991	 30.500580	
13.5616	 30.769539	
13.6241	 32.089100	
13.6866	 32.116739	
13.7491	 33.598363	
13.8116	 33.584694	
13.8741	 33.494226	
13.9366	 33.432406	
13.9991	 33.280072	
14.0616	 33.566154	
14.1241	 33.831466	
14.1866	 33.941241	
14.2491	 34.066158	
14.3116	 33.900652	
14.3741	 36.969511	
14.4366	 37.130976	
14.4991	 37.062227	
14.5616	 36.968299	
14.6241	 36.910128	
14.6866	 38.856829	
14.7491	 38.768800	
14.8116	 38.755067	
14.874	 38.577554	
14.9365	 38.198344	
14.999	 38.062986	
15.0615	 38.104636	
15.124	 37.801186	
15.1865	 37.660523	
15.249	 41.413070	
15.3115	 47.157190	
15.374	 47.113721	
15.4365	 46.899815	
15.499	 47.008184	
15.5615	 46.965544	
15.624	 46.995545	
15.6865	 47.065563	
15.749	 47.046031	
15.8115	 47.236707	
15.874	 47.260363	
15.9365	 47.329652	
15.999	 47.354590	
16.0615	 47.305474	
16.124	 47.342197	
16.1865	 47.346345	
16.249	 47.131207	
16.3115	 46.975648	
16.374	 46.887940	
16.4364	 46.826234	
16.4989	 46.835568	
16.5614	 46.804095	
16.6239	 46.966036	
16.6864	 46.962281	
16.7489	 46.914615	
16.8114	 46.829679	
16.8739	 46.820440	
16.9364	 46.826001	
16.9989	 46.757855	
17.0614	 46.650356	
17.1239	 46.653836	
17.1864	 46.615309	
17.2489	 46.565637	
17.3114	 46.646497	
17.3739	 46.672083	
17.4364	 46.739771	
17.4989	 46.819983	
17.5614	 46.792222	
17.6239	 46.778502	
17.6864	 46.728071	
